<mxfile host="app.diagrams.net" modified="2023-09-17T03:55:41.329Z" agent="Mozilla/5.0 (Macintosh; Intel Mac OS X 10_15_7) AppleWebKit/537.36 (KHTML, like Gecko) Chrome/116.0.0.0 Safari/537.36" etag="kPNSEw8VhjKC-lzD0h2W" version="21.6.5" type="device">
  <diagram name="BastionHost_Connection" id="XU0wC5bNILv5KR0LUrfu">
    <mxGraphModel dx="1266" dy="667" grid="1" gridSize="10" guides="1" tooltips="1" connect="1" arrows="1" fold="1" page="1" pageScale="1" pageWidth="827" pageHeight="1169" math="0" shadow="0">
      <root>
        <mxCell id="0" />
        <mxCell id="1" parent="0" />
        <mxCell id="8Q37uL6HGb-CScG1RRHY-1" value="VPC-1" style="points=[[0,0],[0.25,0],[0.5,0],[0.75,0],[1,0],[1,0.25],[1,0.5],[1,0.75],[1,1],[0.75,1],[0.5,1],[0.25,1],[0,1],[0,0.75],[0,0.5],[0,0.25]];outlineConnect=0;gradientColor=none;html=1;whiteSpace=wrap;fontSize=12;fontStyle=0;container=1;pointerEvents=0;collapsible=0;recursiveResize=0;shape=mxgraph.aws4.group;grIcon=mxgraph.aws4.group_vpc;strokeColor=#248814;fillColor=none;verticalAlign=top;align=left;spacingLeft=30;fontColor=#AAB7B8;dashed=0;" parent="1" vertex="1">
          <mxGeometry x="90" y="120" width="510" height="240" as="geometry" />
        </mxCell>
        <mxCell id="8Q37uL6HGb-CScG1RRHY-4" value="Priv-Sub1-AZ1&lt;br&gt;&lt;font style=&quot;font-size: 10px;&quot;&gt;172.168.1.0/24&lt;/font&gt;" style="points=[[0,0],[0.25,0],[0.5,0],[0.75,0],[1,0],[1,0.25],[1,0.5],[1,0.75],[1,1],[0.75,1],[0.5,1],[0.25,1],[0,1],[0,0.75],[0,0.5],[0,0.25]];outlineConnect=0;gradientColor=none;html=1;whiteSpace=wrap;fontSize=12;fontStyle=0;container=1;pointerEvents=0;collapsible=0;recursiveResize=0;shape=mxgraph.aws4.group;grIcon=mxgraph.aws4.group_security_group;grStroke=0;strokeColor=#147EBA;fillColor=#E6F2F8;verticalAlign=top;align=left;spacingLeft=30;fontColor=#147EBA;dashed=0;" parent="8Q37uL6HGb-CScG1RRHY-1" vertex="1">
          <mxGeometry x="40" y="160" width="120" height="40" as="geometry" />
        </mxCell>
        <mxCell id="8Q37uL6HGb-CScG1RRHY-6" value="Pub-Sub1-AZ1 10.10.1.0/24" style="points=[[0,0],[0.25,0],[0.5,0],[0.75,0],[1,0],[1,0.25],[1,0.5],[1,0.75],[1,1],[0.75,1],[0.5,1],[0.25,1],[0,1],[0,0.75],[0,0.5],[0,0.25]];outlineConnect=0;gradientColor=none;html=1;whiteSpace=wrap;fontSize=12;fontStyle=0;container=1;pointerEvents=0;collapsible=0;recursiveResize=0;shape=mxgraph.aws4.group;grIcon=mxgraph.aws4.group_security_group;grStroke=0;strokeColor=#248814;fillColor=#E9F3E6;verticalAlign=top;align=left;spacingLeft=30;fontColor=#248814;dashed=0;" parent="8Q37uL6HGb-CScG1RRHY-1" vertex="1">
          <mxGeometry x="40" y="80" width="120" height="40" as="geometry" />
        </mxCell>
        <mxCell id="8Q37uL6HGb-CScG1RRHY-16" value="Priv-Sub2-AZ2&lt;br&gt;&lt;font style=&quot;font-size: 10px;&quot;&gt;172.168.2.0/24&lt;/font&gt;" style="points=[[0,0],[0.25,0],[0.5,0],[0.75,0],[1,0],[1,0.25],[1,0.5],[1,0.75],[1,1],[0.75,1],[0.5,1],[0.25,1],[0,1],[0,0.75],[0,0.5],[0,0.25]];outlineConnect=0;gradientColor=none;html=1;whiteSpace=wrap;fontSize=12;fontStyle=0;container=1;pointerEvents=0;collapsible=0;recursiveResize=0;shape=mxgraph.aws4.group;grIcon=mxgraph.aws4.group_security_group;grStroke=0;strokeColor=#147EBA;fillColor=#E6F2F8;verticalAlign=top;align=left;spacingLeft=30;fontColor=#147EBA;dashed=0;" parent="8Q37uL6HGb-CScG1RRHY-1" vertex="1">
          <mxGeometry x="200" y="160" width="120" height="40" as="geometry" />
        </mxCell>
        <mxCell id="8Q37uL6HGb-CScG1RRHY-17" value="Pub-Sub2-AZ2 10.10.2.0/24" style="points=[[0,0],[0.25,0],[0.5,0],[0.75,0],[1,0],[1,0.25],[1,0.5],[1,0.75],[1,1],[0.75,1],[0.5,1],[0.25,1],[0,1],[0,0.75],[0,0.5],[0,0.25]];outlineConnect=0;gradientColor=none;html=1;whiteSpace=wrap;fontSize=12;fontStyle=0;container=1;pointerEvents=0;collapsible=0;recursiveResize=0;shape=mxgraph.aws4.group;grIcon=mxgraph.aws4.group_security_group;grStroke=0;strokeColor=#248814;fillColor=#E9F3E6;verticalAlign=top;align=left;spacingLeft=30;fontColor=#248814;dashed=0;" parent="8Q37uL6HGb-CScG1RRHY-1" vertex="1">
          <mxGeometry x="200" y="80" width="120" height="40" as="geometry" />
        </mxCell>
        <mxCell id="8Q37uL6HGb-CScG1RRHY-24" value="" style="endArrow=classic;startArrow=classic;html=1;rounded=0;entryX=0;entryY=0.5;entryDx=0;entryDy=0;entryPerimeter=0;" parent="8Q37uL6HGb-CScG1RRHY-17" target="8Q37uL6HGb-CScG1RRHY-23" edge="1">
          <mxGeometry width="50" height="50" relative="1" as="geometry">
            <mxPoint x="70" y="60" as="sourcePoint" />
            <mxPoint x="120" y="10" as="targetPoint" />
          </mxGeometry>
        </mxCell>
        <mxCell id="8Q37uL6HGb-CScG1RRHY-18" value="MGT-Sub3-AZ3 10.10.110.0/24" style="points=[[0,0],[0.25,0],[0.5,0],[0.75,0],[1,0],[1,0.25],[1,0.5],[1,0.75],[1,1],[0.75,1],[0.5,1],[0.25,1],[0,1],[0,0.75],[0,0.5],[0,0.25]];outlineConnect=0;gradientColor=none;html=1;whiteSpace=wrap;fontSize=12;fontStyle=0;container=1;pointerEvents=0;collapsible=0;recursiveResize=0;shape=mxgraph.aws4.group;grIcon=mxgraph.aws4.group_security_group;grStroke=0;strokeColor=#248814;fillColor=#E9F3E6;verticalAlign=top;align=left;spacingLeft=30;fontColor=#248814;dashed=0;" parent="8Q37uL6HGb-CScG1RRHY-1" vertex="1">
          <mxGeometry x="360" y="80" width="120" height="40" as="geometry" />
        </mxCell>
        <mxCell id="8Q37uL6HGb-CScG1RRHY-20" value="" style="outlineConnect=0;dashed=0;verticalLabelPosition=bottom;verticalAlign=top;align=center;html=1;shape=mxgraph.aws3.router;fillColor=#F58536;gradientColor=none;" parent="8Q37uL6HGb-CScG1RRHY-1" vertex="1">
          <mxGeometry x="90" y="130" width="20" height="20" as="geometry" />
        </mxCell>
        <mxCell id="8Q37uL6HGb-CScG1RRHY-21" value="" style="outlineConnect=0;dashed=0;verticalLabelPosition=bottom;verticalAlign=top;align=center;html=1;shape=mxgraph.aws3.router;fillColor=#F58536;gradientColor=none;" parent="8Q37uL6HGb-CScG1RRHY-1" vertex="1">
          <mxGeometry x="250" y="130" width="20" height="20" as="geometry" />
        </mxCell>
        <mxCell id="8Q37uL6HGb-CScG1RRHY-23" value="" style="outlineConnect=0;dashed=0;verticalLabelPosition=bottom;verticalAlign=top;align=center;html=1;shape=mxgraph.aws3.router;fillColor=#F58536;gradientColor=none;" parent="8Q37uL6HGb-CScG1RRHY-1" vertex="1">
          <mxGeometry x="410" y="130" width="20" height="20" as="geometry" />
        </mxCell>
        <mxCell id="8Q37uL6HGb-CScG1RRHY-29" value="" style="endArrow=classic;html=1;rounded=0;entryX=0.5;entryY=1;entryDx=0;entryDy=0;exitX=0.5;exitY=0;exitDx=0;exitDy=0;exitPerimeter=0;" parent="8Q37uL6HGb-CScG1RRHY-1" source="8Q37uL6HGb-CScG1RRHY-21" target="8Q37uL6HGb-CScG1RRHY-17" edge="1">
          <mxGeometry width="50" height="50" relative="1" as="geometry">
            <mxPoint x="310" y="330" as="sourcePoint" />
            <mxPoint x="360" y="280" as="targetPoint" />
          </mxGeometry>
        </mxCell>
        <mxCell id="8Q37uL6HGb-CScG1RRHY-32" value="" style="endArrow=classic;html=1;rounded=0;entryX=0.5;entryY=1;entryDx=0;entryDy=0;exitX=0.5;exitY=0;exitDx=0;exitDy=0;exitPerimeter=0;" parent="8Q37uL6HGb-CScG1RRHY-1" source="8Q37uL6HGb-CScG1RRHY-20" target="8Q37uL6HGb-CScG1RRHY-6" edge="1">
          <mxGeometry width="50" height="50" relative="1" as="geometry">
            <mxPoint x="310" y="330" as="sourcePoint" />
            <mxPoint x="360" y="280" as="targetPoint" />
          </mxGeometry>
        </mxCell>
        <mxCell id="8Q37uL6HGb-CScG1RRHY-33" value="" style="endArrow=classic;html=1;rounded=0;entryX=0.5;entryY=0;entryDx=0;entryDy=0;exitX=0.5;exitY=1;exitDx=0;exitDy=0;exitPerimeter=0;" parent="8Q37uL6HGb-CScG1RRHY-1" source="8Q37uL6HGb-CScG1RRHY-20" target="8Q37uL6HGb-CScG1RRHY-4" edge="1">
          <mxGeometry width="50" height="50" relative="1" as="geometry">
            <mxPoint x="310" y="330" as="sourcePoint" />
            <mxPoint x="360" y="280" as="targetPoint" />
          </mxGeometry>
        </mxCell>
        <mxCell id="8Q37uL6HGb-CScG1RRHY-34" value="" style="endArrow=classic;html=1;rounded=0;entryX=0.5;entryY=0;entryDx=0;entryDy=0;exitX=0.5;exitY=1;exitDx=0;exitDy=0;exitPerimeter=0;" parent="8Q37uL6HGb-CScG1RRHY-1" source="8Q37uL6HGb-CScG1RRHY-21" target="8Q37uL6HGb-CScG1RRHY-16" edge="1">
          <mxGeometry width="50" height="50" relative="1" as="geometry">
            <mxPoint x="310" y="330" as="sourcePoint" />
            <mxPoint x="360" y="280" as="targetPoint" />
          </mxGeometry>
        </mxCell>
        <mxCell id="8Q37uL6HGb-CScG1RRHY-35" value="" style="endArrow=classic;html=1;rounded=0;entryX=0.5;entryY=1;entryDx=0;entryDy=0;exitX=0.5;exitY=0;exitDx=0;exitDy=0;exitPerimeter=0;" parent="8Q37uL6HGb-CScG1RRHY-1" source="8Q37uL6HGb-CScG1RRHY-23" target="8Q37uL6HGb-CScG1RRHY-18" edge="1">
          <mxGeometry width="50" height="50" relative="1" as="geometry">
            <mxPoint x="310" y="330" as="sourcePoint" />
            <mxPoint x="360" y="280" as="targetPoint" />
          </mxGeometry>
        </mxCell>
        <mxCell id="8Q37uL6HGb-CScG1RRHY-42" value="" style="endArrow=classic;startArrow=classic;html=1;rounded=0;entryX=0;entryY=0.5;entryDx=0;entryDy=0;entryPerimeter=0;" parent="8Q37uL6HGb-CScG1RRHY-1" edge="1">
          <mxGeometry width="50" height="50" relative="1" as="geometry">
            <mxPoint x="110" y="139.5" as="sourcePoint" />
            <mxPoint x="250" y="139.5" as="targetPoint" />
          </mxGeometry>
        </mxCell>
        <mxCell id="8Q37uL6HGb-CScG1RRHY-44" value="ap-southeast-1a" style="sketch=0;outlineConnect=0;gradientColor=none;html=1;whiteSpace=wrap;fontSize=12;fontStyle=0;shape=mxgraph.aws4.group;grIcon=mxgraph.aws4.group_availability_zone;strokeColor=#545B64;fillColor=none;verticalAlign=top;align=left;spacingLeft=30;fontColor=#545B64;dashed=1;" parent="8Q37uL6HGb-CScG1RRHY-1" vertex="1">
          <mxGeometry x="30" y="40" width="140" height="180" as="geometry" />
        </mxCell>
        <mxCell id="8Q37uL6HGb-CScG1RRHY-48" value="Bastion Host" style="outlineConnect=0;dashed=0;verticalLabelPosition=bottom;verticalAlign=top;align=center;html=1;shape=mxgraph.aws3.ec2;fillColor=#F58534;gradientColor=none;" parent="8Q37uL6HGb-CScG1RRHY-1" vertex="1">
          <mxGeometry x="405" y="165" width="30" height="30" as="geometry" />
        </mxCell>
        <mxCell id="8Q37uL6HGb-CScG1RRHY-56" value="" style="endArrow=classic;startArrow=classic;html=1;rounded=0;entryX=0.5;entryY=0;entryDx=0;entryDy=0;entryPerimeter=0;exitX=0.5;exitY=0.611;exitDx=0;exitDy=0;exitPerimeter=0;" parent="8Q37uL6HGb-CScG1RRHY-1" target="8Q37uL6HGb-CScG1RRHY-48" edge="1">
          <mxGeometry width="50" height="50" relative="1" as="geometry">
            <mxPoint x="420" y="149.98000000000002" as="sourcePoint" />
            <mxPoint x="360" y="120" as="targetPoint" />
          </mxGeometry>
        </mxCell>
        <mxCell id="8Q37uL6HGb-CScG1RRHY-86" value="ap-southeast-1b" style="sketch=0;outlineConnect=0;gradientColor=none;html=1;whiteSpace=wrap;fontSize=12;fontStyle=0;shape=mxgraph.aws4.group;grIcon=mxgraph.aws4.group_availability_zone;strokeColor=#545B64;fillColor=none;verticalAlign=top;align=left;spacingLeft=30;fontColor=#545B64;dashed=1;" parent="8Q37uL6HGb-CScG1RRHY-1" vertex="1">
          <mxGeometry x="190" y="40" width="140" height="180" as="geometry" />
        </mxCell>
        <mxCell id="8Q37uL6HGb-CScG1RRHY-88" value="ap-southeast-1c" style="sketch=0;outlineConnect=0;gradientColor=none;html=1;whiteSpace=wrap;fontSize=12;fontStyle=0;shape=mxgraph.aws4.group;grIcon=mxgraph.aws4.group_availability_zone;strokeColor=#545B64;fillColor=none;verticalAlign=top;align=left;spacingLeft=30;fontColor=#545B64;dashed=1;" parent="8Q37uL6HGb-CScG1RRHY-1" vertex="1">
          <mxGeometry x="350" y="40" width="140" height="180" as="geometry" />
        </mxCell>
        <mxCell id="zQobN7fMnQouY3zwDoZQ-12" value="" style="endArrow=classic;startArrow=classic;html=1;rounded=0;exitX=0.571;exitY=0.556;exitDx=0;exitDy=0;exitPerimeter=0;" parent="8Q37uL6HGb-CScG1RRHY-1" source="8Q37uL6HGb-CScG1RRHY-88" edge="1">
          <mxGeometry width="50" height="50" relative="1" as="geometry">
            <mxPoint x="560" y="210" as="sourcePoint" />
            <mxPoint x="510" y="140" as="targetPoint" />
          </mxGeometry>
        </mxCell>
        <mxCell id="8Q37uL6HGb-CScG1RRHY-57" value="VPC-2" style="points=[[0,0],[0.25,0],[0.5,0],[0.75,0],[1,0],[1,0.25],[1,0.5],[1,0.75],[1,1],[0.75,1],[0.5,1],[0.25,1],[0,1],[0,0.75],[0,0.5],[0,0.25]];outlineConnect=0;gradientColor=none;html=1;whiteSpace=wrap;fontSize=12;fontStyle=0;container=1;pointerEvents=0;collapsible=0;recursiveResize=0;shape=mxgraph.aws4.group;grIcon=mxgraph.aws4.group_vpc;strokeColor=#248814;fillColor=none;verticalAlign=top;align=left;spacingLeft=30;fontColor=#AAB7B8;dashed=0;movable=1;resizable=1;rotatable=1;deletable=1;editable=1;locked=0;connectable=1;" parent="1" vertex="1">
          <mxGeometry x="680" y="120" width="360" height="240" as="geometry" />
        </mxCell>
        <mxCell id="8Q37uL6HGb-CScG1RRHY-58" value="Priv-Sub1-AZ1&lt;br&gt;&lt;font style=&quot;font-size: 10px;&quot;&gt;172.168.3.0/24&lt;/font&gt;" style="points=[[0,0],[0.25,0],[0.5,0],[0.75,0],[1,0],[1,0.25],[1,0.5],[1,0.75],[1,1],[0.75,1],[0.5,1],[0.25,1],[0,1],[0,0.75],[0,0.5],[0,0.25]];outlineConnect=0;gradientColor=none;html=1;whiteSpace=wrap;fontSize=12;fontStyle=0;container=1;pointerEvents=0;collapsible=0;recursiveResize=0;shape=mxgraph.aws4.group;grIcon=mxgraph.aws4.group_security_group;grStroke=0;strokeColor=#147EBA;fillColor=#E6F2F8;verticalAlign=top;align=left;spacingLeft=30;fontColor=#147EBA;dashed=0;movable=1;resizable=1;rotatable=1;deletable=1;editable=1;locked=0;connectable=1;" parent="8Q37uL6HGb-CScG1RRHY-57" vertex="1">
          <mxGeometry x="40" y="160" width="120" height="40" as="geometry" />
        </mxCell>
        <mxCell id="8Q37uL6HGb-CScG1RRHY-59" value="Pub-Sub1-AZ1 192.168.1.0/24" style="points=[[0,0],[0.25,0],[0.5,0],[0.75,0],[1,0],[1,0.25],[1,0.5],[1,0.75],[1,1],[0.75,1],[0.5,1],[0.25,1],[0,1],[0,0.75],[0,0.5],[0,0.25]];outlineConnect=0;gradientColor=none;html=1;whiteSpace=wrap;fontSize=12;fontStyle=0;container=1;pointerEvents=0;collapsible=0;recursiveResize=0;shape=mxgraph.aws4.group;grIcon=mxgraph.aws4.group_security_group;grStroke=0;strokeColor=#248814;fillColor=#E9F3E6;verticalAlign=top;align=left;spacingLeft=30;fontColor=#248814;dashed=0;movable=1;resizable=1;rotatable=1;deletable=1;editable=1;locked=0;connectable=1;" parent="8Q37uL6HGb-CScG1RRHY-57" vertex="1">
          <mxGeometry x="40" y="80" width="120" height="40" as="geometry" />
        </mxCell>
        <mxCell id="8Q37uL6HGb-CScG1RRHY-60" value="Priv-Sub2-AZ2&lt;br&gt;&lt;font style=&quot;font-size: 10px;&quot;&gt;172.168.4.0/24&lt;/font&gt;" style="points=[[0,0],[0.25,0],[0.5,0],[0.75,0],[1,0],[1,0.25],[1,0.5],[1,0.75],[1,1],[0.75,1],[0.5,1],[0.25,1],[0,1],[0,0.75],[0,0.5],[0,0.25]];outlineConnect=0;gradientColor=none;html=1;whiteSpace=wrap;fontSize=12;fontStyle=0;container=1;pointerEvents=0;collapsible=0;recursiveResize=0;shape=mxgraph.aws4.group;grIcon=mxgraph.aws4.group_security_group;grStroke=0;strokeColor=#147EBA;fillColor=#E6F2F8;verticalAlign=top;align=left;spacingLeft=30;fontColor=#147EBA;dashed=0;movable=1;resizable=1;rotatable=1;deletable=1;editable=1;locked=0;connectable=1;" parent="8Q37uL6HGb-CScG1RRHY-57" vertex="1">
          <mxGeometry x="200" y="160" width="120" height="40" as="geometry" />
        </mxCell>
        <mxCell id="8Q37uL6HGb-CScG1RRHY-61" value="Pub-Sub2-AZ2 192.168.2.0/24" style="points=[[0,0],[0.25,0],[0.5,0],[0.75,0],[1,0],[1,0.25],[1,0.5],[1,0.75],[1,1],[0.75,1],[0.5,1],[0.25,1],[0,1],[0,0.75],[0,0.5],[0,0.25]];outlineConnect=0;gradientColor=none;html=1;whiteSpace=wrap;fontSize=12;fontStyle=0;container=1;pointerEvents=0;collapsible=0;recursiveResize=0;shape=mxgraph.aws4.group;grIcon=mxgraph.aws4.group_security_group;grStroke=0;strokeColor=#248814;fillColor=#E9F3E6;verticalAlign=top;align=left;spacingLeft=30;fontColor=#248814;dashed=0;movable=1;resizable=1;rotatable=1;deletable=1;editable=1;locked=0;connectable=1;" parent="8Q37uL6HGb-CScG1RRHY-57" vertex="1">
          <mxGeometry x="200" y="80" width="120" height="40" as="geometry" />
        </mxCell>
        <mxCell id="8Q37uL6HGb-CScG1RRHY-64" value="" style="outlineConnect=0;dashed=0;verticalLabelPosition=bottom;verticalAlign=top;align=center;html=1;shape=mxgraph.aws3.router;fillColor=#F58536;gradientColor=none;movable=1;resizable=1;rotatable=1;deletable=1;editable=1;locked=0;connectable=1;" parent="8Q37uL6HGb-CScG1RRHY-57" vertex="1">
          <mxGeometry x="90" y="130" width="20" height="20" as="geometry" />
        </mxCell>
        <mxCell id="8Q37uL6HGb-CScG1RRHY-65" value="" style="outlineConnect=0;dashed=0;verticalLabelPosition=bottom;verticalAlign=top;align=center;html=1;shape=mxgraph.aws3.router;fillColor=#F58536;gradientColor=none;movable=1;resizable=1;rotatable=1;deletable=1;editable=1;locked=0;connectable=1;" parent="8Q37uL6HGb-CScG1RRHY-57" vertex="1">
          <mxGeometry x="250" y="130" width="20" height="20" as="geometry" />
        </mxCell>
        <mxCell id="8Q37uL6HGb-CScG1RRHY-67" value="" style="endArrow=classic;html=1;rounded=0;entryX=0.5;entryY=1;entryDx=0;entryDy=0;exitX=0.5;exitY=0;exitDx=0;exitDy=0;exitPerimeter=0;movable=1;resizable=1;rotatable=1;deletable=1;editable=1;locked=0;connectable=1;" parent="8Q37uL6HGb-CScG1RRHY-57" source="8Q37uL6HGb-CScG1RRHY-65" target="8Q37uL6HGb-CScG1RRHY-61" edge="1">
          <mxGeometry width="50" height="50" relative="1" as="geometry">
            <mxPoint x="310" y="330" as="sourcePoint" />
            <mxPoint x="360" y="280" as="targetPoint" />
          </mxGeometry>
        </mxCell>
        <mxCell id="8Q37uL6HGb-CScG1RRHY-68" value="" style="endArrow=classic;html=1;rounded=0;entryX=0.5;entryY=1;entryDx=0;entryDy=0;exitX=0.5;exitY=0;exitDx=0;exitDy=0;exitPerimeter=0;movable=1;resizable=1;rotatable=1;deletable=1;editable=1;locked=0;connectable=1;" parent="8Q37uL6HGb-CScG1RRHY-57" source="8Q37uL6HGb-CScG1RRHY-64" target="8Q37uL6HGb-CScG1RRHY-59" edge="1">
          <mxGeometry width="50" height="50" relative="1" as="geometry">
            <mxPoint x="310" y="330" as="sourcePoint" />
            <mxPoint x="360" y="280" as="targetPoint" />
          </mxGeometry>
        </mxCell>
        <mxCell id="8Q37uL6HGb-CScG1RRHY-69" value="" style="endArrow=classic;html=1;rounded=0;entryX=0.5;entryY=0;entryDx=0;entryDy=0;exitX=0.5;exitY=1;exitDx=0;exitDy=0;exitPerimeter=0;movable=1;resizable=1;rotatable=1;deletable=1;editable=1;locked=0;connectable=1;" parent="8Q37uL6HGb-CScG1RRHY-57" source="8Q37uL6HGb-CScG1RRHY-64" target="8Q37uL6HGb-CScG1RRHY-58" edge="1">
          <mxGeometry width="50" height="50" relative="1" as="geometry">
            <mxPoint x="310" y="330" as="sourcePoint" />
            <mxPoint x="360" y="280" as="targetPoint" />
          </mxGeometry>
        </mxCell>
        <mxCell id="8Q37uL6HGb-CScG1RRHY-70" value="" style="endArrow=classic;html=1;rounded=0;entryX=0.5;entryY=0;entryDx=0;entryDy=0;exitX=0.5;exitY=1;exitDx=0;exitDy=0;exitPerimeter=0;movable=1;resizable=1;rotatable=1;deletable=1;editable=1;locked=0;connectable=1;" parent="8Q37uL6HGb-CScG1RRHY-57" source="8Q37uL6HGb-CScG1RRHY-65" target="8Q37uL6HGb-CScG1RRHY-60" edge="1">
          <mxGeometry width="50" height="50" relative="1" as="geometry">
            <mxPoint x="310" y="330" as="sourcePoint" />
            <mxPoint x="360" y="280" as="targetPoint" />
          </mxGeometry>
        </mxCell>
        <mxCell id="8Q37uL6HGb-CScG1RRHY-74" value="" style="endArrow=classic;startArrow=classic;html=1;rounded=0;entryX=0;entryY=0.5;entryDx=0;entryDy=0;entryPerimeter=0;movable=1;resizable=1;rotatable=1;deletable=1;editable=1;locked=0;connectable=1;" parent="8Q37uL6HGb-CScG1RRHY-57" edge="1">
          <mxGeometry width="50" height="50" relative="1" as="geometry">
            <mxPoint x="110" y="139.5" as="sourcePoint" />
            <mxPoint x="250" y="139.5" as="targetPoint" />
          </mxGeometry>
        </mxCell>
        <mxCell id="8Q37uL6HGb-CScG1RRHY-85" value="ap-southeast-1b" style="sketch=0;outlineConnect=0;gradientColor=none;html=1;whiteSpace=wrap;fontSize=12;fontStyle=0;shape=mxgraph.aws4.group;grIcon=mxgraph.aws4.group_availability_zone;strokeColor=#545B64;fillColor=none;verticalAlign=top;align=left;spacingLeft=30;fontColor=#545B64;dashed=1;" parent="8Q37uL6HGb-CScG1RRHY-57" vertex="1">
          <mxGeometry x="190" y="40" width="140" height="180" as="geometry" />
        </mxCell>
        <mxCell id="8Q37uL6HGb-CScG1RRHY-87" value="ap-southeast-1a" style="sketch=0;outlineConnect=0;gradientColor=none;html=1;whiteSpace=wrap;fontSize=12;fontStyle=0;shape=mxgraph.aws4.group;grIcon=mxgraph.aws4.group_availability_zone;strokeColor=#545B64;fillColor=none;verticalAlign=top;align=left;spacingLeft=30;fontColor=#545B64;dashed=1;" parent="8Q37uL6HGb-CScG1RRHY-57" vertex="1">
          <mxGeometry x="30" y="40" width="140" height="180" as="geometry" />
        </mxCell>
        <mxCell id="zQobN7fMnQouY3zwDoZQ-13" value="" style="endArrow=classic;startArrow=classic;html=1;rounded=0;entryX=0.429;entryY=0.556;entryDx=0;entryDy=0;entryPerimeter=0;" parent="8Q37uL6HGb-CScG1RRHY-57" target="8Q37uL6HGb-CScG1RRHY-87" edge="1">
          <mxGeometry width="50" height="50" relative="1" as="geometry">
            <mxPoint y="140" as="sourcePoint" />
            <mxPoint x="50" y="130" as="targetPoint" />
          </mxGeometry>
        </mxCell>
        <mxCell id="gb4wMkcAK0NZmf9i14GI-29" value="&lt;b&gt;Bastion Host Network transmission b/w 2 AWS account using Transit gateway&amp;nbsp;&lt;/b&gt;" style="rounded=1;arcSize=10;whiteSpace=wrap;html=1;align=center;" parent="1" vertex="1">
          <mxGeometry x="260" y="30" width="600" height="40" as="geometry" />
        </mxCell>
        <mxCell id="gb4wMkcAK0NZmf9i14GI-77" value="AWS-Account-1" style="points=[[0,0],[0.25,0],[0.5,0],[0.75,0],[1,0],[1,0.25],[1,0.5],[1,0.75],[1,1],[0.75,1],[0.5,1],[0.25,1],[0,1],[0,0.75],[0,0.5],[0,0.25]];outlineConnect=0;gradientColor=none;html=1;whiteSpace=wrap;fontSize=12;fontStyle=0;container=1;pointerEvents=0;collapsible=0;recursiveResize=0;shape=mxgraph.aws4.group;grIcon=mxgraph.aws4.group_account;strokeColor=#CD2264;fillColor=none;verticalAlign=top;align=left;spacingLeft=30;fontColor=#CD2264;dashed=0;" parent="1" vertex="1">
          <mxGeometry x="80" y="90" width="1000" height="290" as="geometry" />
        </mxCell>
        <mxCell id="gb4wMkcAK0NZmf9i14GI-114" value="&lt;font style=&quot;font-size: 9px;&quot;&gt;Internet GW&lt;/font&gt;" style="outlineConnect=0;dashed=0;verticalLabelPosition=bottom;verticalAlign=top;align=center;html=1;shape=mxgraph.aws3.internet_gateway;fillColor=#F58534;gradientColor=none;" parent="gb4wMkcAK0NZmf9i14GI-77" vertex="1">
          <mxGeometry x="340" y="10" width="20" height="20" as="geometry" />
        </mxCell>
        <mxCell id="_wqAfwk17SHX7gf3nbQT-5" value="&lt;font size=&quot;1&quot;&gt;TGX-1&lt;/font&gt;" style="sketch=0;points=[[0,0,0],[0.25,0,0],[0.5,0,0],[0.75,0,0],[1,0,0],[0,1,0],[0.25,1,0],[0.5,1,0],[0.75,1,0],[1,1,0],[0,0.25,0],[0,0.5,0],[0,0.75,0],[1,0.25,0],[1,0.5,0],[1,0.75,0]];outlineConnect=0;fontColor=#232F3E;gradientColor=#945DF2;gradientDirection=north;fillColor=#5A30B5;strokeColor=#ffffff;dashed=0;verticalLabelPosition=bottom;verticalAlign=top;align=center;html=1;fontSize=12;fontStyle=0;aspect=fixed;shape=mxgraph.aws4.resourceIcon;resIcon=mxgraph.aws4.transit_gateway;" parent="gb4wMkcAK0NZmf9i14GI-77" vertex="1">
          <mxGeometry x="540" y="150" width="40" height="40" as="geometry" />
        </mxCell>
        <mxCell id="zQobN7fMnQouY3zwDoZQ-14" value="&lt;font style=&quot;font-size: 9px;&quot;&gt;VPC Peering&lt;/font&gt;" style="outlineConnect=0;dashed=0;verticalLabelPosition=bottom;verticalAlign=top;align=center;html=1;shape=mxgraph.aws3.vpc_peering;fillColor=#F58534;gradientColor=none;" parent="gb4wMkcAK0NZmf9i14GI-77" vertex="1">
          <mxGeometry x="542.75" y="70" width="34.5" height="40" as="geometry" />
        </mxCell>
        <mxCell id="zQobN7fMnQouY3zwDoZQ-17" value="" style="endArrow=classic;startArrow=classic;html=1;rounded=0;entryX=0;entryY=0.5;entryDx=0;entryDy=0;entryPerimeter=0;exitX=1;exitY=0.25;exitDx=0;exitDy=0;strokeColor=#FF8000;" parent="gb4wMkcAK0NZmf9i14GI-77" edge="1">
          <mxGeometry width="50" height="50" relative="1" as="geometry">
            <mxPoint x="577.25" y="89.91999999999999" as="sourcePoint" />
            <mxPoint x="600.25" y="89.91999999999999" as="targetPoint" />
          </mxGeometry>
        </mxCell>
        <mxCell id="_wqAfwk17SHX7gf3nbQT-2" value="" style="endArrow=classic;startArrow=classic;html=1;rounded=0;entryX=1;entryY=0.5;entryDx=0;entryDy=0;strokeColor=#0000FF;" parent="gb4wMkcAK0NZmf9i14GI-77" edge="1">
          <mxGeometry width="50" height="50" relative="1" as="geometry">
            <mxPoint x="540" y="170" as="sourcePoint" />
            <mxPoint x="520" y="169.94" as="targetPoint" />
            <Array as="points">
              <mxPoint x="530" y="170" />
            </Array>
          </mxGeometry>
        </mxCell>
        <mxCell id="_wqAfwk17SHX7gf3nbQT-3" value="" style="endArrow=classic;startArrow=classic;html=1;rounded=0;entryX=0;entryY=0.5;entryDx=0;entryDy=0;strokeColor=#0000FF;" parent="gb4wMkcAK0NZmf9i14GI-77" edge="1">
          <mxGeometry width="50" height="50" relative="1" as="geometry">
            <mxPoint x="580" y="169.94" as="sourcePoint" />
            <mxPoint x="600" y="169.94" as="targetPoint" />
          </mxGeometry>
        </mxCell>
        <mxCell id="gb4wMkcAK0NZmf9i14GI-78" value="VPC-3" style="points=[[0,0],[0.25,0],[0.5,0],[0.75,0],[1,0],[1,0.25],[1,0.5],[1,0.75],[1,1],[0.75,1],[0.5,1],[0.25,1],[0,1],[0,0.75],[0,0.5],[0,0.25]];outlineConnect=0;gradientColor=none;html=1;whiteSpace=wrap;fontSize=12;fontStyle=0;container=1;pointerEvents=0;collapsible=0;recursiveResize=0;shape=mxgraph.aws4.group;grIcon=mxgraph.aws4.group_vpc;strokeColor=#248814;fillColor=none;verticalAlign=top;align=left;spacingLeft=30;fontColor=#AAB7B8;dashed=0;movable=1;resizable=1;rotatable=1;deletable=1;editable=1;locked=0;connectable=1;" parent="1" vertex="1">
          <mxGeometry x="465" y="475" width="360" height="240" as="geometry" />
        </mxCell>
        <mxCell id="gb4wMkcAK0NZmf9i14GI-79" value="Priv-Sub1-AZ1&lt;br&gt;&lt;font style=&quot;font-size: 10px;&quot;&gt;172.168.5.0/24&lt;/font&gt;" style="points=[[0,0],[0.25,0],[0.5,0],[0.75,0],[1,0],[1,0.25],[1,0.5],[1,0.75],[1,1],[0.75,1],[0.5,1],[0.25,1],[0,1],[0,0.75],[0,0.5],[0,0.25]];outlineConnect=0;gradientColor=none;html=1;whiteSpace=wrap;fontSize=12;fontStyle=0;container=1;pointerEvents=0;collapsible=0;recursiveResize=0;shape=mxgraph.aws4.group;grIcon=mxgraph.aws4.group_security_group;grStroke=0;strokeColor=#147EBA;fillColor=#E6F2F8;verticalAlign=top;align=left;spacingLeft=30;fontColor=#147EBA;dashed=0;movable=1;resizable=1;rotatable=1;deletable=1;editable=1;locked=0;connectable=1;" parent="gb4wMkcAK0NZmf9i14GI-78" vertex="1">
          <mxGeometry x="40" y="160" width="120" height="40" as="geometry" />
        </mxCell>
        <mxCell id="gb4wMkcAK0NZmf9i14GI-80" value="Pub-Sub1-AZ1 192.168.20.0/24" style="points=[[0,0],[0.25,0],[0.5,0],[0.75,0],[1,0],[1,0.25],[1,0.5],[1,0.75],[1,1],[0.75,1],[0.5,1],[0.25,1],[0,1],[0,0.75],[0,0.5],[0,0.25]];outlineConnect=0;gradientColor=none;html=1;whiteSpace=wrap;fontSize=12;fontStyle=0;container=1;pointerEvents=0;collapsible=0;recursiveResize=0;shape=mxgraph.aws4.group;grIcon=mxgraph.aws4.group_security_group;grStroke=0;strokeColor=#248814;fillColor=#E9F3E6;verticalAlign=top;align=left;spacingLeft=30;fontColor=#248814;dashed=0;movable=1;resizable=1;rotatable=1;deletable=1;editable=1;locked=0;connectable=1;" parent="gb4wMkcAK0NZmf9i14GI-78" vertex="1">
          <mxGeometry x="40" y="80" width="120" height="40" as="geometry" />
        </mxCell>
        <mxCell id="gb4wMkcAK0NZmf9i14GI-81" value="Priv-Sub2-AZ2&lt;br&gt;&lt;font style=&quot;font-size: 10px;&quot;&gt;172.168.6.0/24&lt;/font&gt;" style="points=[[0,0],[0.25,0],[0.5,0],[0.75,0],[1,0],[1,0.25],[1,0.5],[1,0.75],[1,1],[0.75,1],[0.5,1],[0.25,1],[0,1],[0,0.75],[0,0.5],[0,0.25]];outlineConnect=0;gradientColor=none;html=1;whiteSpace=wrap;fontSize=12;fontStyle=0;container=1;pointerEvents=0;collapsible=0;recursiveResize=0;shape=mxgraph.aws4.group;grIcon=mxgraph.aws4.group_security_group;grStroke=0;strokeColor=#147EBA;fillColor=#E6F2F8;verticalAlign=top;align=left;spacingLeft=30;fontColor=#147EBA;dashed=0;movable=1;resizable=1;rotatable=1;deletable=1;editable=1;locked=0;connectable=1;" parent="gb4wMkcAK0NZmf9i14GI-78" vertex="1">
          <mxGeometry x="200" y="160" width="120" height="40" as="geometry" />
        </mxCell>
        <mxCell id="gb4wMkcAK0NZmf9i14GI-82" value="Pub-Sub2-AZ2 192.168.30.0/24" style="points=[[0,0],[0.25,0],[0.5,0],[0.75,0],[1,0],[1,0.25],[1,0.5],[1,0.75],[1,1],[0.75,1],[0.5,1],[0.25,1],[0,1],[0,0.75],[0,0.5],[0,0.25]];outlineConnect=0;gradientColor=none;html=1;whiteSpace=wrap;fontSize=12;fontStyle=0;container=1;pointerEvents=0;collapsible=0;recursiveResize=0;shape=mxgraph.aws4.group;grIcon=mxgraph.aws4.group_security_group;grStroke=0;strokeColor=#248814;fillColor=#E9F3E6;verticalAlign=top;align=left;spacingLeft=30;fontColor=#248814;dashed=0;movable=1;resizable=1;rotatable=1;deletable=1;editable=1;locked=0;connectable=1;" parent="gb4wMkcAK0NZmf9i14GI-78" vertex="1">
          <mxGeometry x="200" y="80" width="120" height="40" as="geometry" />
        </mxCell>
        <mxCell id="gb4wMkcAK0NZmf9i14GI-83" value="" style="outlineConnect=0;dashed=0;verticalLabelPosition=bottom;verticalAlign=top;align=center;html=1;shape=mxgraph.aws3.router;fillColor=#F58536;gradientColor=none;movable=1;resizable=1;rotatable=1;deletable=1;editable=1;locked=0;connectable=1;" parent="gb4wMkcAK0NZmf9i14GI-78" vertex="1">
          <mxGeometry x="90" y="130" width="20" height="20" as="geometry" />
        </mxCell>
        <mxCell id="gb4wMkcAK0NZmf9i14GI-84" value="" style="outlineConnect=0;dashed=0;verticalLabelPosition=bottom;verticalAlign=top;align=center;html=1;shape=mxgraph.aws3.router;fillColor=#F58536;gradientColor=none;movable=1;resizable=1;rotatable=1;deletable=1;editable=1;locked=0;connectable=1;" parent="gb4wMkcAK0NZmf9i14GI-78" vertex="1">
          <mxGeometry x="250" y="130" width="20" height="20" as="geometry" />
        </mxCell>
        <mxCell id="gb4wMkcAK0NZmf9i14GI-85" value="" style="endArrow=classic;html=1;rounded=0;entryX=0.5;entryY=1;entryDx=0;entryDy=0;exitX=0.5;exitY=0;exitDx=0;exitDy=0;exitPerimeter=0;movable=1;resizable=1;rotatable=1;deletable=1;editable=1;locked=0;connectable=1;" parent="gb4wMkcAK0NZmf9i14GI-78" source="gb4wMkcAK0NZmf9i14GI-84" target="gb4wMkcAK0NZmf9i14GI-82" edge="1">
          <mxGeometry width="50" height="50" relative="1" as="geometry">
            <mxPoint x="310" y="330" as="sourcePoint" />
            <mxPoint x="360" y="280" as="targetPoint" />
          </mxGeometry>
        </mxCell>
        <mxCell id="gb4wMkcAK0NZmf9i14GI-86" value="" style="endArrow=classic;html=1;rounded=0;entryX=0.5;entryY=1;entryDx=0;entryDy=0;exitX=0.5;exitY=0;exitDx=0;exitDy=0;exitPerimeter=0;movable=1;resizable=1;rotatable=1;deletable=1;editable=1;locked=0;connectable=1;" parent="gb4wMkcAK0NZmf9i14GI-78" source="gb4wMkcAK0NZmf9i14GI-83" target="gb4wMkcAK0NZmf9i14GI-80" edge="1">
          <mxGeometry width="50" height="50" relative="1" as="geometry">
            <mxPoint x="310" y="330" as="sourcePoint" />
            <mxPoint x="360" y="280" as="targetPoint" />
          </mxGeometry>
        </mxCell>
        <mxCell id="gb4wMkcAK0NZmf9i14GI-87" value="" style="endArrow=classic;html=1;rounded=0;entryX=0.5;entryY=0;entryDx=0;entryDy=0;exitX=0.5;exitY=1;exitDx=0;exitDy=0;exitPerimeter=0;movable=1;resizable=1;rotatable=1;deletable=1;editable=1;locked=0;connectable=1;" parent="gb4wMkcAK0NZmf9i14GI-78" source="gb4wMkcAK0NZmf9i14GI-83" target="gb4wMkcAK0NZmf9i14GI-79" edge="1">
          <mxGeometry width="50" height="50" relative="1" as="geometry">
            <mxPoint x="310" y="330" as="sourcePoint" />
            <mxPoint x="360" y="280" as="targetPoint" />
          </mxGeometry>
        </mxCell>
        <mxCell id="gb4wMkcAK0NZmf9i14GI-88" value="" style="endArrow=classic;html=1;rounded=0;entryX=0.5;entryY=0;entryDx=0;entryDy=0;exitX=0.5;exitY=1;exitDx=0;exitDy=0;exitPerimeter=0;movable=1;resizable=1;rotatable=1;deletable=1;editable=1;locked=0;connectable=1;" parent="gb4wMkcAK0NZmf9i14GI-78" source="gb4wMkcAK0NZmf9i14GI-84" target="gb4wMkcAK0NZmf9i14GI-81" edge="1">
          <mxGeometry width="50" height="50" relative="1" as="geometry">
            <mxPoint x="310" y="330" as="sourcePoint" />
            <mxPoint x="360" y="280" as="targetPoint" />
          </mxGeometry>
        </mxCell>
        <mxCell id="gb4wMkcAK0NZmf9i14GI-90" value="" style="endArrow=classic;startArrow=classic;html=1;rounded=0;entryX=0;entryY=0.5;entryDx=0;entryDy=0;entryPerimeter=0;movable=1;resizable=1;rotatable=1;deletable=1;editable=1;locked=0;connectable=1;" parent="gb4wMkcAK0NZmf9i14GI-78" edge="1">
          <mxGeometry width="50" height="50" relative="1" as="geometry">
            <mxPoint x="110" y="139.5" as="sourcePoint" />
            <mxPoint x="250" y="139.5" as="targetPoint" />
          </mxGeometry>
        </mxCell>
        <mxCell id="gb4wMkcAK0NZmf9i14GI-97" value="AWS-Account-2" style="points=[[0,0],[0.25,0],[0.5,0],[0.75,0],[1,0],[1,0.25],[1,0.5],[1,0.75],[1,1],[0.75,1],[0.5,1],[0.25,1],[0,1],[0,0.75],[0,0.5],[0,0.25]];outlineConnect=0;gradientColor=none;html=1;whiteSpace=wrap;fontSize=12;fontStyle=0;container=1;pointerEvents=0;collapsible=0;recursiveResize=0;shape=mxgraph.aws4.group;grIcon=mxgraph.aws4.group_account;strokeColor=#CD2264;fillColor=none;verticalAlign=top;align=left;spacingLeft=30;fontColor=#CD2264;dashed=0;" parent="1" vertex="1">
          <mxGeometry x="430" y="405" width="415" height="330" as="geometry" />
        </mxCell>
        <mxCell id="gb4wMkcAK0NZmf9i14GI-132" value="ap-southeast-1b" style="sketch=0;outlineConnect=0;gradientColor=none;html=1;whiteSpace=wrap;fontSize=12;fontStyle=0;shape=mxgraph.aws4.group;grIcon=mxgraph.aws4.group_availability_zone;strokeColor=#545B64;fillColor=none;verticalAlign=top;align=left;spacingLeft=30;fontColor=#545B64;dashed=1;" parent="gb4wMkcAK0NZmf9i14GI-97" vertex="1">
          <mxGeometry x="220" y="110" width="140" height="180" as="geometry" />
        </mxCell>
        <mxCell id="zQobN7fMnQouY3zwDoZQ-1" value="&lt;font size=&quot;1&quot;&gt;TG&amp;nbsp; &amp;nbsp; &amp;nbsp;X-2&lt;/font&gt;" style="sketch=0;points=[[0,0,0],[0.25,0,0],[0.5,0,0],[0.75,0,0],[1,0,0],[0,1,0],[0.25,1,0],[0.5,1,0],[0.75,1,0],[1,1,0],[0,0.25,0],[0,0.5,0],[0,0.75,0],[1,0.25,0],[1,0.5,0],[1,0.75,0]];outlineConnect=0;fontColor=#232F3E;gradientColor=#945DF2;gradientDirection=north;fillColor=#5A30B5;strokeColor=#ffffff;dashed=0;verticalLabelPosition=bottom;verticalAlign=top;align=center;html=1;fontSize=12;fontStyle=0;aspect=fixed;shape=mxgraph.aws4.resourceIcon;resIcon=mxgraph.aws4.transit_gateway;" parent="gb4wMkcAK0NZmf9i14GI-97" vertex="1">
          <mxGeometry x="190" y="10" width="40" height="40" as="geometry" />
        </mxCell>
        <mxCell id="zQobN7fMnQouY3zwDoZQ-9" value="" style="outlineConnect=0;dashed=0;verticalLabelPosition=bottom;verticalAlign=top;align=center;html=1;shape=mxgraph.aws3.router;fillColor=#F58534;gradientColor=none;" parent="gb4wMkcAK0NZmf9i14GI-97" vertex="1">
          <mxGeometry x="200" y="90" width="20" height="20" as="geometry" />
        </mxCell>
        <mxCell id="gb4wMkcAK0NZmf9i14GI-106" value="Transit Gateway connection" style="text;html=1;strokeColor=none;fillColor=none;align=center;verticalAlign=middle;whiteSpace=wrap;rounded=0;" parent="1" vertex="1">
          <mxGeometry x="110" y="595" width="180" height="30" as="geometry" />
        </mxCell>
        <mxCell id="gb4wMkcAK0NZmf9i14GI-115" style="edgeStyle=orthogonalEdgeStyle;rounded=0;orthogonalLoop=1;jettySize=auto;html=1;exitX=0.5;exitY=1;exitDx=0;exitDy=0;exitPerimeter=0;entryX=0.429;entryY=0.556;entryDx=0;entryDy=0;entryPerimeter=0;strokeColor=#FF8000;" parent="1" source="gb4wMkcAK0NZmf9i14GI-114" target="8Q37uL6HGb-CScG1RRHY-88" edge="1">
          <mxGeometry relative="1" as="geometry" />
        </mxCell>
        <mxCell id="gb4wMkcAK0NZmf9i14GI-116" value="" style="endArrow=classic;html=1;rounded=0;strokeColor=#FF8000;" parent="1" edge="1">
          <mxGeometry width="50" height="50" relative="1" as="geometry">
            <mxPoint x="80" y="425" as="sourcePoint" />
            <mxPoint x="120" y="425" as="targetPoint" />
            <Array as="points">
              <mxPoint x="110" y="425" />
            </Array>
          </mxGeometry>
        </mxCell>
        <mxCell id="gb4wMkcAK0NZmf9i14GI-117" value="Internet Gateway" style="text;html=1;strokeColor=none;fillColor=none;align=center;verticalAlign=middle;whiteSpace=wrap;rounded=0;" parent="1" vertex="1">
          <mxGeometry x="115" y="405" width="120" height="30" as="geometry" />
        </mxCell>
        <mxCell id="gb4wMkcAK0NZmf9i14GI-118" value="" style="endArrow=classic;startArrow=classic;html=1;rounded=0;strokeColor=#FF8000;" parent="1" target="gb4wMkcAK0NZmf9i14GI-119" edge="1">
          <mxGeometry width="50" height="50" relative="1" as="geometry">
            <mxPoint x="80" y="445" as="sourcePoint" />
            <mxPoint x="120" y="445" as="targetPoint" />
          </mxGeometry>
        </mxCell>
        <mxCell id="gb4wMkcAK0NZmf9i14GI-119" value="VPC peering b/w 2 VPC" style="text;html=1;strokeColor=none;fillColor=none;align=center;verticalAlign=middle;whiteSpace=wrap;rounded=0;" parent="1" vertex="1">
          <mxGeometry x="120" y="430" width="150" height="30" as="geometry" />
        </mxCell>
        <mxCell id="gb4wMkcAK0NZmf9i14GI-120" value="" style="endArrow=classic;html=1;rounded=0;" parent="1" edge="1">
          <mxGeometry width="50" height="50" relative="1" as="geometry">
            <mxPoint x="80" y="475" as="sourcePoint" />
            <mxPoint x="120" y="475" as="targetPoint" />
          </mxGeometry>
        </mxCell>
        <mxCell id="gb4wMkcAK0NZmf9i14GI-121" value="Unidirectional transmission" style="text;html=1;strokeColor=none;fillColor=none;align=center;verticalAlign=middle;whiteSpace=wrap;rounded=0;" parent="1" vertex="1">
          <mxGeometry x="110" y="460" width="180" height="30" as="geometry" />
        </mxCell>
        <mxCell id="gb4wMkcAK0NZmf9i14GI-122" value="" style="endArrow=classic;startArrow=classic;html=1;rounded=0;" parent="1" edge="1">
          <mxGeometry width="50" height="50" relative="1" as="geometry">
            <mxPoint x="80" y="505" as="sourcePoint" />
            <mxPoint x="120" y="505" as="targetPoint" />
          </mxGeometry>
        </mxCell>
        <mxCell id="gb4wMkcAK0NZmf9i14GI-123" value="Bidirectional transmission" style="text;html=1;strokeColor=none;fillColor=none;align=center;verticalAlign=middle;whiteSpace=wrap;rounded=0;" parent="1" vertex="1">
          <mxGeometry x="115" y="490" width="160" height="30" as="geometry" />
        </mxCell>
        <mxCell id="gb4wMkcAK0NZmf9i14GI-126" value="ap-southeast-1a" style="sketch=0;outlineConnect=0;gradientColor=none;html=1;whiteSpace=wrap;fontSize=12;fontStyle=0;shape=mxgraph.aws4.group;grIcon=mxgraph.aws4.group_availability_zone;strokeColor=#545B64;fillColor=none;verticalAlign=top;align=left;spacingLeft=30;fontColor=#545B64;dashed=1;" parent="1" vertex="1">
          <mxGeometry x="495" y="515" width="140" height="180" as="geometry" />
        </mxCell>
        <mxCell id="gb4wMkcAK0NZmf9i14GI-136" value="" style="sketch=0;points=[[0,0,0],[0.25,0,0],[0.5,0,0],[0.75,0,0],[1,0,0],[0,1,0],[0.25,1,0],[0.5,1,0],[0.75,1,0],[1,1,0],[0,0.25,0],[0,0.5,0],[0,0.75,0],[1,0.25,0],[1,0.5,0],[1,0.75,0]];outlineConnect=0;fontColor=#232F3E;gradientColor=#945DF2;gradientDirection=north;fillColor=#5A30B5;strokeColor=#ffffff;dashed=0;verticalLabelPosition=bottom;verticalAlign=top;align=center;html=1;fontSize=12;fontStyle=0;aspect=fixed;shape=mxgraph.aws4.resourceIcon;resIcon=mxgraph.aws4.transit_gateway;" parent="1" vertex="1">
          <mxGeometry x="92.5" y="570" width="20" height="20" as="geometry" />
        </mxCell>
        <mxCell id="gb4wMkcAK0NZmf9i14GI-137" value="Transit Gateway" style="text;html=1;strokeColor=none;fillColor=none;align=center;verticalAlign=middle;whiteSpace=wrap;rounded=0;" parent="1" vertex="1">
          <mxGeometry x="120" y="565" width="100" height="30" as="geometry" />
        </mxCell>
        <mxCell id="gb4wMkcAK0NZmf9i14GI-138" value="" style="outlineConnect=0;dashed=0;verticalLabelPosition=bottom;verticalAlign=top;align=center;html=1;shape=mxgraph.aws3.router;fillColor=#F58534;gradientColor=none;" parent="1" vertex="1">
          <mxGeometry x="90" y="525" width="25" height="30" as="geometry" />
        </mxCell>
        <mxCell id="gb4wMkcAK0NZmf9i14GI-142" value="Router" style="text;html=1;strokeColor=none;fillColor=none;align=center;verticalAlign=middle;whiteSpace=wrap;rounded=0;" parent="1" vertex="1">
          <mxGeometry x="115" y="525" width="60" height="30" as="geometry" />
        </mxCell>
        <mxCell id="gb4wMkcAK0NZmf9i14GI-150" value="&lt;font size=&quot;1&quot;&gt;&amp;nbsp; &amp;nbsp; &amp;nbsp;&lt;/font&gt;" style="outlineConnect=0;dashed=0;verticalLabelPosition=bottom;verticalAlign=top;align=center;html=1;shape=mxgraph.aws3.vpc_peering;fillColor=#F58534;gradientColor=none;" parent="1" vertex="1">
          <mxGeometry x="90" y="620" width="25" height="30" as="geometry" />
        </mxCell>
        <mxCell id="gb4wMkcAK0NZmf9i14GI-152" value="VPC Peering" style="text;html=1;strokeColor=none;fillColor=none;align=center;verticalAlign=middle;whiteSpace=wrap;rounded=0;" parent="1" vertex="1">
          <mxGeometry x="120" y="620" width="90" height="30" as="geometry" />
        </mxCell>
        <mxCell id="gb4wMkcAK0NZmf9i14GI-153" value="" style="outlineConnect=0;dashed=0;verticalLabelPosition=bottom;verticalAlign=top;align=center;html=1;shape=mxgraph.aws3.ec2;fillColor=#F58534;gradientColor=none;" parent="1" vertex="1">
          <mxGeometry x="90" y="660" width="20" height="20" as="geometry" />
        </mxCell>
        <mxCell id="gb4wMkcAK0NZmf9i14GI-154" value="EC2 Instance" style="text;html=1;strokeColor=none;fillColor=none;align=center;verticalAlign=middle;whiteSpace=wrap;rounded=0;" parent="1" vertex="1">
          <mxGeometry x="115" y="655" width="100" height="30" as="geometry" />
        </mxCell>
        <mxCell id="zQobN7fMnQouY3zwDoZQ-4" value="" style="endArrow=classic;startArrow=classic;html=1;rounded=0;entryX=0.5;entryY=1;entryDx=0;entryDy=0;entryPerimeter=0;exitX=0.5;exitY=0;exitDx=0;exitDy=0;exitPerimeter=0;strokeColor=#0000FF;" parent="1" source="zQobN7fMnQouY3zwDoZQ-1" target="_wqAfwk17SHX7gf3nbQT-5" edge="1">
          <mxGeometry width="50" height="50" relative="1" as="geometry">
            <mxPoint x="700" y="490" as="sourcePoint" />
            <mxPoint x="750" y="440" as="targetPoint" />
          </mxGeometry>
        </mxCell>
        <mxCell id="zQobN7fMnQouY3zwDoZQ-8" value="" style="endArrow=classic;startArrow=classic;html=1;rounded=0;entryX=0.5;entryY=1;entryDx=0;entryDy=0;entryPerimeter=0;strokeColor=#0000FF;" parent="1" source="gb4wMkcAK0NZmf9i14GI-78" target="zQobN7fMnQouY3zwDoZQ-1" edge="1">
          <mxGeometry width="50" height="50" relative="1" as="geometry">
            <mxPoint x="830" y="575" as="sourcePoint" />
            <mxPoint x="880" y="525" as="targetPoint" />
          </mxGeometry>
        </mxCell>
        <mxCell id="zQobN7fMnQouY3zwDoZQ-10" value="" style="endArrow=classic;startArrow=classic;html=1;rounded=0;exitX=0.5;exitY=0;exitDx=0;exitDy=0;exitPerimeter=0;" parent="1" source="zQobN7fMnQouY3zwDoZQ-9" edge="1">
          <mxGeometry width="50" height="50" relative="1" as="geometry">
            <mxPoint x="830" y="445" as="sourcePoint" />
            <mxPoint x="640" y="475" as="targetPoint" />
          </mxGeometry>
        </mxCell>
        <mxCell id="zQobN7fMnQouY3zwDoZQ-15" value="" style="endArrow=classic;startArrow=classic;html=1;rounded=0;entryX=0;entryY=0.5;entryDx=0;entryDy=0;entryPerimeter=0;exitX=1;exitY=0.25;exitDx=0;exitDy=0;strokeColor=#FF8000;" parent="1" source="8Q37uL6HGb-CScG1RRHY-1" target="zQobN7fMnQouY3zwDoZQ-14" edge="1">
          <mxGeometry width="50" height="50" relative="1" as="geometry">
            <mxPoint x="530" y="280" as="sourcePoint" />
            <mxPoint x="580" y="230" as="targetPoint" />
          </mxGeometry>
        </mxCell>
        <mxCell id="zQobN7fMnQouY3zwDoZQ-20" value="" style="endArrow=classic;startArrow=classic;html=1;rounded=0;strokeColor=#0000FF;" parent="1" edge="1">
          <mxGeometry width="50" height="50" relative="1" as="geometry">
            <mxPoint x="80" y="609.84" as="sourcePoint" />
            <mxPoint x="120" y="609.84" as="targetPoint" />
          </mxGeometry>
        </mxCell>
        <mxCell id="zQobN7fMnQouY3zwDoZQ-22" value="" style="endArrow=classic;html=1;rounded=0;" parent="1" target="zQobN7fMnQouY3zwDoZQ-9" edge="1">
          <mxGeometry width="50" height="50" relative="1" as="geometry">
            <mxPoint x="640" y="610" as="sourcePoint" />
            <mxPoint x="600" y="390" as="targetPoint" />
          </mxGeometry>
        </mxCell>
      </root>
    </mxGraphModel>
  </diagram>
</mxfile>
